<svg id="Group_170" data-name="Group 170" xmlns="http://www.w3.org/2000/svg" xmlns:xlink="http://www.w3.org/1999/xlink" width="127" height="127" viewBox="0 0 127 127">
  <defs>
    <clipPath id="clip-path">
      <path id="Path_67" data-name="Path 67" d="M3,65.594A62.594,62.594,0,1,0,65.594,3,62.594,62.594,0,0,0,3,65.594" transform="translate(-3 -3)" fill="none"/>
    </clipPath>
    <linearGradient id="linear-gradient" x1="-0.001" y1="1.001" x2="0.001" y2="1.001" gradientUnits="objectBoundingBox">
      <stop offset="0" stop-color="#008ad0"/>
      <stop offset="0.371" stop-color="#0085cc"/>
      <stop offset="0.786" stop-color="#0077c1"/>
      <stop offset="1" stop-color="#006eb9"/>
    </linearGradient>
    <clipPath id="clip-path-2">
      <rect id="Rectangle_607" data-name="Rectangle 607" width="127" height="127" fill="none"/>
    </clipPath>
    <clipPath id="clip-path-3">
      <rect id="Rectangle_608" data-name="Rectangle 608" width="113.155" height="114.902" fill="none"/>
    </clipPath>
  </defs>
  <g id="Group_165" data-name="Group 165" transform="translate(0.906 0.906)">
    <g id="Group_164" data-name="Group 164" clip-path="url(#clip-path)">
      <path id="Path_66" data-name="Path 66" d="M1.255,1.255V.5H127.2V127.2H.5V.5h.755v.755H2.01V125.688H125.688V2.01H1.255V1.255h0Z" transform="translate(-1.255 -1.255)" fill="url(#linear-gradient)"/>
    </g>
  </g>
  <g id="Group_167" data-name="Group 167">
    <g id="Group_166" data-name="Group 166" clip-path="url(#clip-path-2)">
      <path id="Path_68" data-name="Path 68" d="M63.849,1.255V2.01a61.839,61.839,0,1,0,61.839,61.839A61.919,61.919,0,0,0,63.849,2.01V.5A63.349,63.349,0,1,1,.5,63.849,63.349,63.349,0,0,1,63.849.5Z" transform="translate(-0.349 -0.349)" fill="url(#linear-gradient)"/>
    </g>
  </g>
  <g id="Group_169" data-name="Group 169" transform="translate(8.372 7.957)">
    <g id="Group_168" data-name="Group 168" clip-path="url(#clip-path-3)">
      <path id="Path_69" data-name="Path 69" d="M136.664,82.688q0,1.337-.066,2.672t-.2,2.666q-.131,1.331-.326,2.653t-.456,2.634q-.26,1.311-.584,2.608t-.711,2.576q-.387,1.279-.836,2.538t-.96,2.494q-.51,1.235-1.08,2.444t-1.2,2.388q-.629,1.179-1.314,2.326t-1.426,2.258q-.741,1.112-1.535,2.186t-1.64,2.107q-.846,1.034-1.741,2.024t-1.838,1.936q-.942.945-1.931,1.843t-2.018,1.746q-1.031.848-2.1,1.645t-2.179,1.539q-1.109.743-2.252,1.43t-2.319,1.318q-1.176.63-2.381,1.2T103.137,133q-1.232.512-2.487.962t-2.531.838q-1.276.388-2.569.713t-2.6.586q-1.307.261-2.626.457t-2.646.327q-1.327.131-2.658.2t-2.665.066q-1.333,0-2.665-.066t-2.658-.2q-1.327-.131-2.646-.327t-2.626-.457q-1.308-.261-2.6-.586t-2.569-.713q-1.276-.388-2.531-.838T61.569,133q-1.231-.511-2.437-1.083t-2.381-1.2q-1.176-.63-2.319-1.318t-2.252-1.43q-1.108-.743-2.179-1.539t-2.1-1.645q-1.031-.848-2.019-1.746T43.949,121.2q-.943-.945-1.838-1.936t-1.741-2.024q-.846-1.034-1.64-2.107t-1.535-2.186q-.74-1.111-1.426-2.258t-1.314-2.326q-.629-1.179-1.2-2.388t-1.08-2.444q-.51-1.236-.96-2.494T30.381,98.5q-.387-1.279-.711-2.576t-.584-2.608q-.26-1.312-.456-2.634T28.3,88.026q-.13-1.331-.2-2.666t-.066-2.672q0-1.337.066-2.672t.2-2.666q.131-1.331.326-2.653t.456-2.634q.26-1.311.584-2.608t.711-2.576q.387-1.279.836-2.538t.96-2.494q.51-1.235,1.08-2.444t1.2-2.388q.629-1.179,1.314-2.326t1.426-2.258q.741-1.112,1.535-2.186t1.64-2.107q.846-1.034,1.741-2.024t1.838-1.936q.943-.945,1.931-1.843T47.9,40.589q1.03-.848,2.1-1.645t2.179-1.539q1.109-.743,2.252-1.43t2.319-1.318q1.176-.63,2.381-1.2t2.437-1.083q1.232-.512,2.487-.962t2.531-.838q1.276-.388,2.569-.713t2.6-.586q1.307-.261,2.626-.457t2.646-.327q1.327-.131,2.658-.2t2.665-.066q1.333,0,2.665.066t2.658.2q1.327.131,2.646.327t2.626.457q1.308.261,2.6.586t2.569.713q1.276.388,2.531.838t2.487.962q1.232.511,2.437,1.083t2.381,1.2q1.176.63,2.319,1.318t2.252,1.43q1.109.743,2.179,1.539t2.1,1.645q1.03.848,2.018,1.746t1.931,1.843q.943.945,1.838,1.936t1.741,2.024q.846,1.034,1.64,2.107t1.535,2.186q.741,1.111,1.426,2.258t1.314,2.326q.629,1.179,1.2,2.388t1.08,2.444q.51,1.235.96,2.494t.836,2.538q.387,1.279.711,2.576t.584,2.608q.26,1.312.456,2.634t.326,2.653q.13,1.331.2,2.666t.066,2.672" transform="translate(-27.947 -27.661)" fill="#eeefef"/>
      <path id="Path_70" data-name="Path 70" d="M35.572,89.167a.979.979,0,0,1-.372-.075.995.995,0,0,1-.614-.9c-.005-.272-.011-.569-.011-.935q0-1.523.089-3.044t.265-3.034q.177-1.513.44-3.013t.614-2.983q.35-1.482.785-2.942t.954-2.892q.519-1.432,1.12-2.831t1.281-2.761q.68-1.362,1.439-2.682t1.591-2.594q.833-1.274,1.739-2.5t1.88-2.392q.975-1.168,2.015-2.278t2.144-2.157q1.1-1.048,2.264-2.029t2.378-1.894q1.216-.912,2.484-1.752t2.581-1.605q1.314-.765,2.669-1.453t2.749-1.295q1.393-.608,2.819-1.133t2.88-.967q1.454-.442,2.931-.8t2.972-.626q1.495-.27,3-.452t3.024-.277q1.516-.095,3.035-.1t3.036.076q1.517.082,3.027.252t3.007.428q1.5.258,2.977.6t2.937.774a.993.993,0,0,1,.586.478.993.993,0,0,1-1.144,1.422q-1.4-.413-2.826-.743t-2.864-.577q-1.441-.247-2.893-.41t-2.912-.241q-1.46-.078-2.921-.072t-2.92.1q-1.459.092-2.909.268t-2.889.436q-1.438.26-2.859.6t-2.819.768q-1.4.425-2.77.931t-2.712,1.09q-1.34.585-2.644,1.246t-2.568,1.4q-1.264.736-2.483,1.544T56.765,46.84q-1.17.878-2.288,1.822T52.3,50.614q-1.061,1.008-2.062,2.075T48.3,54.88q-.937,1.124-1.809,2.3t-1.673,2.4q-.8,1.225-1.532,2.495T41.9,64.657q-.655,1.31-1.233,2.656t-1.078,2.723q-.5,1.377-.919,2.781t-.757,2.83q-.337,1.426-.592,2.869t-.425,2.9q-.171,1.456-.257,2.918t-.088,2.928c0,.277.005.569.011.9a.988.988,0,0,1-.972,1Zm.217,3.954a.983.983,0,0,1-.665-.256.986.986,0,0,1-.317-.639v-.01a.981.981,0,0,1,.4-.883.983.983,0,0,1,.444-.181.985.985,0,0,1,.873.319.985.985,0,0,1,.224.424.978.978,0,0,1,.029.24.988.988,0,0,1-.891.982c-.03,0-.065,0-.094,0" transform="translate(-32.508 -32.235)" fill="#fff"/>
      <path id="Path_71" data-name="Path 71" d="M128.348,166.237c-10.23,1.7-19.786,6.136-29.076,10.755s-18.55,9.511-28.559,12.234a71.034,71.034,0,0,1-39.76-.866q.246,1.339.558,2.665t.69,2.633q.378,1.308.821,2.6t.949,2.551q.506,1.264,1.075,2.5t1.2,2.443q.629,1.206,1.318,2.38T39,208.438q.746,1.137,1.549,2.236T42.2,212.83q.856,1.057,1.763,2.07t1.864,1.979q.957.967,1.961,1.883t2.052,1.783q1.048.865,2.138,1.678t2.219,1.569q1.129.756,2.295,1.455t2.364,1.338q1.2.639,2.428,1.218t2.485,1.1q1.257.517,2.537.969t2.582.841q1.3.388,2.621.71t2.653.578q1.334.256,2.679.444t2.7.31q1.353.121,2.71.175t2.715.038q1.358-.015,2.713-.1t2.7-.234q1.35-.151,2.69-.369t2.668-.5q1.328-.285,2.64-.636t2.6-.768q1.293-.416,2.563-.9t2.515-1.025q1.245-.544,2.461-1.149t2.4-1.271q1.184-.666,2.335-1.39t2.262-1.505q1.112-.781,2.184-1.617t2.1-1.724q1.029-.889,2.013-1.827t1.919-1.926q.936-.987,1.821-2.019t1.718-2.108q.833-1.076,1.611-2.192t1.5-2.27q.721-1.153,1.385-2.342t1.266-2.408q.6-1.22,1.144-2.469t1.02-2.523q.478-1.274.893-2.571t.764-2.612q.349-1.316.633-2.648t.5-2.676q.216-1.344.366-2.7t.231-2.713q.082-1.36.1-2.721t-.04-2.722q-.054-1.361-.176-2.717t-.311-2.7q-.189-1.349-.445-2.686t-.579-2.66a49.55,49.55,0,0,0-8.79.669" transform="translate(-29.98 -123.532)" fill="#fcc5b1"/>
      <path id="Path_72" data-name="Path 72" d="M166.37,165.569c-1.319-.018-2.638.026-3.954.114q.3,2.053.446,4.124t.132,4.146q-.013,2.076-.183,4.144t-.5,4.118q-.327,2.05-.809,4.068t-1.115,3.995q-.634,1.976-1.415,3.9t-1.707,3.779q-.925,1.857-1.989,3.638t-2.259,3.475q-1.2,1.695-2.516,3.293t-2.759,3.091q-1.438,1.493-2.985,2.872t-3.195,2.635q-1.647,1.256-3.386,2.384t-3.557,2.119q-1.818.991-3.707,1.841t-3.836,1.553q-1.947.7-3.943,1.255t-4.027.951q-2.032.4-4.087.641t-4.124.327q-2.068.085-4.137.011t-4.126-.3q-2.057-.231-4.091-.618t-4.032-.929q-2-.542-3.95-1.234t-3.844-1.532Q84.826,222.582,83,221.6t-3.568-2.1q-1.744-1.118-3.4-2.366t-3.209-2.618q1.493,1.7,3.121,3.271t3.381,3q1.753,1.429,3.618,2.708t3.829,2.4q1.964,1.119,4.015,2.07t4.172,1.729q2.122.777,4.3,1.375t4.4,1.013q2.221.415,4.469.643t4.507.269q2.259.04,4.513-.107t4.488-.483q2.235-.335,4.433-.855t4.347-1.221q2.148-.7,4.231-1.579t4.085-1.926q2-1.048,3.912-2.259t3.711-2.577q1.8-1.366,3.485-2.877t3.235-3.157q1.552-1.646,2.962-3.416t2.669-3.651q1.259-1.881,2.358-3.86t2.03-4.043q.931-2.064,1.688-4.2t1.335-4.325q.577-2.19.972-4.421t.6-4.486q.208-2.255.229-4.521t-.146-4.525q-.167-2.259-.52-4.5t-.891-4.438" transform="translate(-59.211 -123.533)" fill="#fab49b"/>
      <path id="Path_73" data-name="Path 73" d="M169.089,165.57c-.642-.009-1.283,0-1.924.017q.412,2.1.659,4.234t.325,4.272q.078,2.143-.011,4.285t-.347,4.27q-.258,2.128-.681,4.23t-1.01,4.163q-.587,2.062-1.334,4.071t-1.649,3.953q-.9,1.944-1.953,3.811t-2.246,3.645q-1.195,1.778-2.525,3.456t-2.788,3.247q-1.458,1.568-3.034,3.017t-3.261,2.768q-1.685,1.32-3.468,2.5t-3.654,2.222q-1.87,1.038-3.816,1.927t-3.956,1.62q-2.01.732-4.07,1.3t-4.16.978q-2.1.407-4.224.647t-4.261.312q-2.137.072-4.273-.025t-4.257-.361q-2.122-.265-4.216-.7T98.8,228.411q-2.054-.6-4.055-1.35T90.812,225.4q-1.936-.91-3.794-1.971t-3.628-2.264q-1.769-1.2-3.439-2.543t-3.229-2.806q1.528,1.631,3.184,3.132t3.429,2.86q1.773,1.359,3.651,2.568t3.849,2.259q1.971,1.05,4.021,1.934t4.165,1.6q2.115.713,4.282,1.249t4.37.893q2.2.356,4.428.53t4.457.164q2.231-.01,4.455-.2t4.424-.569q2.2-.375,4.362-.931t4.271-1.286q2.11-.731,4.152-1.633t4-1.969q1.962-1.067,3.83-2.292t3.629-2.6q1.761-1.375,3.4-2.889t3.157-3.159q1.514-1.645,2.887-3.408t2.6-3.634q1.225-1.871,2.293-3.836T166,200.58q.9-2.046,1.636-4.16t1.291-4.281q.558-2.167.936-4.373t.575-4.435q.2-2.229.211-4.467t-.156-4.469q-.169-2.231-.521-4.441t-.882-4.384" transform="translate(-61.93 -123.534)" fill="#ee9880"/>
      <path id="Path_74" data-name="Path 74" d="M180.786,108.219q0,1.019-.1,2.033t-.3,2.013q-.2,1-.493,1.974t-.684,1.916q-.389.942-.868,1.84t-1.043,1.746q-.564.847-1.209,1.635t-1.363,1.508q-.719.721-1.5,1.367t-1.63,1.213q-.845.566-1.741,1.046t-1.835.87q-.938.39-1.911.686t-1.969.495q-1,.2-2.008.3t-2.027.1q-1.016,0-2.027-.1t-2.008-.3q-1-.2-1.969-.495t-1.911-.686q-.939-.39-1.835-.87t-1.741-1.046q-.845-.566-1.63-1.213t-1.5-1.367q-.719-.721-1.363-1.508t-1.209-1.635q-.564-.847-1.043-1.746t-.868-1.84q-.389-.941-.684-1.916t-.493-1.974q-.2-1-.3-2.013t-.1-2.033c0-9.323,13.7-27.191,18.8-33.518a2.414,2.414,0,0,1,3.763,0c5.1,6.327,18.8,24.195,18.8,33.518" transform="translate(-105.697 -59.474)" fill="#fd9200"/>
      <path id="Path_75" data-name="Path 75" d="M170.778,74.716a2.4,2.4,0,0,0-1.757-.9c6.123,8.016,15.624,21.7,15.624,29.465a20.662,20.662,0,0,1-32.628,16.926,20.688,20.688,0,0,0,37.563-11.978c0-9.323-13.7-27.191-18.8-33.518" transform="translate(-114.49 -59.488)" fill="#f5790d"/>
      <path id="Path_76" data-name="Path 76" d="M103.586,242.116a5.233,5.233,0,0,1-3.224,4.839,5.218,5.218,0,0,1-6.341-1.929,5.251,5.251,0,0,1-.88-2.91c0-2.354,3.46-6.867,4.748-8.464a.61.61,0,0,1,.95,0c1.287,1.6,4.748,6.11,4.748,8.464" transform="translate(-73.391 -170.903)" fill="#f5790d"/>
      <path id="Path_77" data-name="Path 77" d="M298.554,242.116a5.233,5.233,0,0,1-3.224,4.839,5.218,5.218,0,0,1-6.341-1.929,5.252,5.252,0,0,1-.88-2.91c0-2.354,3.46-6.867,4.748-8.464a.61.61,0,0,1,.95,0c1.287,1.6,4.748,6.11,4.748,8.464" transform="translate(-209.492 -170.903)" fill="#f5790d"/>
      <path id="Path_78" data-name="Path 78" d="M201.691,298.709a5.233,5.233,0,0,1-3.224,4.839,5.218,5.218,0,0,1-6.341-1.929,5.251,5.251,0,0,1-.88-2.91c0-2.354,3.46-6.867,4.748-8.464a.609.609,0,0,1,.95,0c1.287,1.6,4.748,6.11,4.748,8.464" transform="translate(-141.875 -210.408)" fill="#f5790d"/>
    </g>
  </g>
</svg>
