<svg id="Group_163" data-name="Group 163" xmlns="http://www.w3.org/2000/svg" xmlns:xlink="http://www.w3.org/1999/xlink" width="127.4" height="127.4" viewBox="0 0 127.4 127.4">
  <defs>
    <clipPath id="clip-path">
      <path id="Path_48" data-name="Path 48" d="M3,65.791A62.791,62.791,0,1,0,65.791,3,62.792,62.792,0,0,0,3,65.791" transform="translate(-3 -3)" fill="none"/>
    </clipPath>
    <linearGradient id="linear-gradient" x1="-0.001" y1="1.001" x2="0.001" y2="1.001" gradientUnits="objectBoundingBox">
      <stop offset="0" stop-color="#008ad0"/>
      <stop offset="0.371" stop-color="#0085cc"/>
      <stop offset="0.786" stop-color="#0077c1"/>
      <stop offset="1" stop-color="#006eb9"/>
    </linearGradient>
    <clipPath id="clip-path-2">
      <rect id="Rectangle_603" data-name="Rectangle 603" width="127.4" height="127.4" fill="none"/>
    </clipPath>
    <clipPath id="clip-path-3">
      <rect id="Rectangle_606" data-name="Rectangle 606" width="101.678" height="101.678" fill="none"/>
    </clipPath>
  </defs>
  <g id="Group_158" data-name="Group 158" transform="translate(0.909 0.909)">
    <g id="Group_157" data-name="Group 157" clip-path="url(#clip-path)">
      <path id="Path_47" data-name="Path 47" d="M1.257,1.257V.5H127.6V127.6H.5V.5h.757v.757h.757V126.083H126.083V2.014H1.257V1.257h0Z" transform="translate(-1.257 -1.257)" fill="url(#linear-gradient)"/>
    </g>
  </g>
  <g id="Group_160" data-name="Group 160">
    <g id="Group_159" data-name="Group 159" clip-path="url(#clip-path-2)">
      <path id="Path_49" data-name="Path 49" d="M64.049,1.257v.757a62.034,62.034,0,1,0,62.034,62.034A62.114,62.114,0,0,0,64.049,2.014V.5A63.549,63.549,0,1,1,.5,64.049,63.549,63.549,0,0,1,64.049.5Z" transform="translate(-0.349 -0.349)" fill="url(#linear-gradient)"/>
    </g>
  </g>
  <g id="Group_162" data-name="Group 162" transform="translate(12.859 12.859)">
    <g id="Group_161" data-name="Group 161" clip-path="url(#clip-path-3)">
      <path id="Path_50" data-name="Path 50" d="M144.125,93.29q0,1.248-.061,2.494t-.184,2.488q-.122,1.242-.306,2.476t-.426,2.458q-.244,1.224-.547,2.435t-.665,2.4q-.362,1.194-.783,2.369t-.9,2.328q-.477,1.153-1.011,2.281t-1.122,2.229q-.588,1.1-1.23,2.171t-1.335,2.108q-.693,1.038-1.437,2.04t-1.535,1.967q-.791.965-1.63,1.889t-1.72,1.807q-.882.882-1.807,1.72t-1.889,1.63q-.965.791-1.967,1.535t-2.04,1.437q-1.038.693-2.108,1.335t-2.171,1.23q-1.1.588-2.229,1.122t-2.281,1.011q-1.153.478-2.328.9t-2.369.783q-1.194.362-2.4.665t-2.435.547q-1.223.243-2.458.426t-2.476.305q-1.242.123-2.488.184t-2.495.061q-1.248,0-2.494-.061t-2.488-.184q-1.242-.122-2.476-.305t-2.458-.426q-1.224-.244-2.434-.547t-2.4-.665q-1.194-.363-2.369-.783t-2.328-.9q-1.153-.477-2.281-1.011t-2.229-1.122q-1.1-.588-2.171-1.23t-2.108-1.335q-1.038-.693-2.04-1.437t-1.967-1.535q-.965-.792-1.889-1.63t-1.807-1.72q-.883-.883-1.721-1.807T54,125.539q-.792-.965-1.535-1.967t-1.437-2.04q-.693-1.038-1.335-2.108t-1.23-2.171q-.588-1.1-1.122-2.229t-1.011-2.281q-.478-1.153-.9-2.328t-.783-2.369q-.363-1.194-.665-2.4t-.547-2.435q-.244-1.224-.427-2.458T42.7,98.273q-.122-1.242-.184-2.488t-.061-2.494q0-1.248.061-2.494t.184-2.488q.122-1.242.305-2.476t.427-2.458q.244-1.224.547-2.435t.665-2.4q.362-1.194.783-2.369t.9-2.328q.477-1.153,1.011-2.281t1.122-2.229q.588-1.1,1.23-2.171t1.335-2.108q.693-1.037,1.437-2.04T54,61.041q.791-.965,1.629-1.889t1.721-1.807q.882-.882,1.807-1.72t1.889-1.63q.965-.791,1.967-1.535t2.04-1.437q1.038-.693,2.108-1.335t2.171-1.23q1.1-.588,2.229-1.122t2.281-1.011q1.153-.477,2.328-.9t2.369-.783q1.194-.362,2.4-.665t2.434-.547q1.224-.244,2.458-.426t2.476-.305q1.242-.123,2.488-.184t2.494-.061q1.248,0,2.495.061t2.488.184q1.242.122,2.476.305t2.458.426q1.224.244,2.435.547t2.4.665q1.194.363,2.369.783t2.328.9q1.153.477,2.281,1.011t2.229,1.122q1.1.588,2.171,1.23t2.108,1.335q1.038.693,2.04,1.437t1.967,1.535q.965.792,1.889,1.63t1.807,1.72q.882.883,1.72,1.807t1.63,1.889q.792.965,1.535,1.967t1.437,2.04q.693,1.038,1.335,2.108t1.23,2.171q.588,1.1,1.122,2.229t1.011,2.281q.478,1.153.9,2.328t.783,2.369q.362,1.194.665,2.4t.547,2.435q.244,1.224.426,2.458t.306,2.476q.122,1.242.184,2.488t.061,2.494" transform="translate(-42.457 -42.456)" fill="#ffcba3"/>
      <path id="Path_51" data-name="Path 51" d="M119.9,100.8l-.445-.1,2.5-11.678L115.7,78.857l.387-.238,6.354,10.327-.019.089Z" transform="translate(-93.517 -67.666)" fill="#b2645b"/>
      <path id="Path_52" data-name="Path 52" d="M143.246,122.989l-6.715-10.3.381-.249,6.576,10.086,10.011-.194.009.455Z" transform="translate(-108.038 -91.246)" fill="#b2645b"/>
      <path id="Path_53" data-name="Path 53" d="M59.442,208.281H49.687v-.455h9.538l6.112-7.6,12.233-2.3.084.447-12.067,2.269Z" transform="translate(-47.497 -150.84)" fill="#b2645b"/>
      <path id="Path_54" data-name="Path 54" d="M103.2,243.652l-12.759-2.807L81,231.15l.326-.317,9.345,9.6,12.626,2.778Z" transform="translate(-69.325 -173.777)" fill="#b2645b"/>
      <path id="Path_55" data-name="Path 55" d="M101.5,280.814l-.416-.184,3.245-7.318V263.206h.455v10.2Z" transform="translate(-83.325 -196.345)" fill="#b2645b"/>
      <path id="Path_56" data-name="Path 56" d="M212.817,157.335l0-.455,12.279-.074,7.41-6.413,9.6,1.745-.081.448-9.384-1.706-7.372,6.38Z" transform="translate(-161.216 -117.701)" fill="#b2645b"/>
      <path id="Path_57" data-name="Path 57" d="M232.756,113.579l-7.478-11.115-11.926-4.991.175-.42L225.58,102.1l.038.057,7.516,11.171Z" transform="translate(-161.591 -80.517)" fill="#b2645b"/>
      <path id="Path_58" data-name="Path 58" d="M252.934,75.737l-.447-.081,1.825-10.038,4.556-6.7.376.256-4.5,6.619Z" transform="translate(-188.873 -53.932)" fill="#b2645b"/>
      <path id="Path_59" data-name="Path 59" d="M178.12,323.2l-.7-13.661-11.4-7.738.255-.376,11.583,7.865.006.113.709,13.774Z" transform="translate(-128.595 -222.988)" fill="#b2645b"/>
      <path id="Path_60" data-name="Path 60" d="M204.155,296.555l-.342-.3,8.764-9.963.068-.018,13.693-3.512.113.441L212.826,286.7Z" transform="translate(-154.941 -209.979)" fill="#b2645b"/>
      <rect id="Rectangle_604" data-name="Rectangle 604" width="7.108" height="0.455" transform="matrix(0.06, -0.998, 0.998, 0.06, 57.531, 76.505)" fill="#b2645b"/>
      <path id="Path_61" data-name="Path 61" d="M250.491,191.189l-5.452-9.98.023-.088,2.361-9,.44.115-2.338,8.91,5.366,9.821Z" transform="translate(-183.681 -132.851)" fill="#b2645b"/>
      <path id="Path_62" data-name="Path 62" d="M173.464,205.388l-.426-.16,2.775-7.358-5.638-6.081,1.746-6.721.44.114-1.683,6.48,5.661,6.1Z" transform="translate(-131.492 -141.874)" fill="#b2645b"/>
      <path id="Path_63" data-name="Path 63" d="M197.347,231.554l-8.064-4.646.227-.394,7.8,4.494,5.83-4.477.277.361Z" transform="translate(-144.813 -170.767)" fill="#b2645b"/>
      <path id="Path_64" data-name="Path 64" d="M294.364,257.632l-.319-.324,5.237-5.159-5.417-9.094,7.272-8.837.091-.011,15.75-1.762.051.452-15.659,1.751L294.42,243.1l5.436,9.126Z" transform="translate(-217.718 -174.902)" fill="#b2645b"/>
      <path id="Path_65" data-name="Path 65" d="M284.931,216.181l-4.389-6.145-9.826-3.535.154-.428,9.959,3.583,4.471,6.261Z" transform="translate(-201.581 -156.517)" fill="#b2645b"/>
      <rect id="Rectangle_605" data-name="Rectangle 605" width="0.455" height="7.097" transform="matrix(0.492, -0.87, 0.87, 0.492, 81.737, 77.488)" fill="#b2645b"/>
    </g>
  </g>
</svg>
